<svg fill="none" height="52" viewBox="0 0 270 52" width="270" xmlns="http://www.w3.org/2000/svg" xmlns:xlink="http://www.w3.org/1999/xlink"><clipPath id="a"><path d="m99 2h69v48h-69z"/></clipPath><rect fill="#fff" height="50" rx="2.5" stroke="#c1c1c1" width="78" x="96.5" y=".5"/><g clip-path="url(#a)"><path d="m142.609 13.4209h-14.261v25.1584h14.261z" fill="#ff5f00"/><path d="m129.255 26c-.002-2.423.557-4.8146 1.635-6.994 1.079-2.1794 2.648-4.0893 4.59-5.5852-2.405-1.8553-5.292-3.009-8.333-3.3294-3.041-.32041-6.112.2055-8.862 1.5176-2.751 1.3121-5.07 3.3575-6.693 5.9023-1.622 2.5449-2.483 5.4865-2.483 8.4887s.861 5.9438 2.483 8.4886c1.623 2.5449 3.942 4.5902 6.693 5.9023 2.75 1.3121 5.821 1.8381 8.862 1.5177s5.928-1.4742 8.333-3.3295c-1.942-1.4959-3.511-3.4058-4.59-5.5852-1.078-2.1793-1.637-4.571-1.635-6.9939z" fill="#eb001b"/><g fill="#f79e1b"><path d="m161.85 26c0 3.0021-.86 5.9437-2.483 8.4886-1.622 2.5448-3.941 4.5902-6.692 5.9023-2.75 1.3121-5.821 1.838-8.862 1.5177-3.041-.3204-5.928-1.4742-8.333-3.3295 1.94-1.4974 3.509-3.4076 4.587-5.5866 1.078-2.1791 1.638-4.57 1.638-6.9925 0-2.4226-.56-4.8135-1.638-6.9925-1.078-2.1791-2.647-4.0893-4.587-5.5867 2.405-1.8553 5.292-3.009 8.333-3.3294 3.041-.32041 6.112.2055 8.862 1.5176 2.751 1.3122 5.07 3.3575 6.692 5.9024 1.623 2.5448 2.483 5.4864 2.483 8.4886z"/><path d="m160.296 35.9145v-.5151h.212v-.1049h-.539v.1049h.211v.5151zm1.046 0v-.621h-.165l-.19.4271-.19-.4271h-.165v.621h.116v-.4685l.178.4039h.121l.179-.4049v.4695z"/></g></g><path d="m194 1.5h73c1.381 0 2.5 1.11929 2.5 2.5v44.2474c0 1.3807-1.119 2.5-2.5 2.5h-73c-1.381 0-2.5-1.1193-2.5-2.5v-44.2474c0-1.38071 1.119-2.5 2.5-2.5z" fill="#fff" stroke="#c1c1c1"/><path d="m268.743 43.0127h-76.348v6.8392h76.348z" fill="#fcb316"/><path d="m268.743 2.396h-76.348v6.83922h76.348z" fill="#10357f"/><path d="m222.965 16.7723-7.956 18.8428h-5.164l-3.909-15.0742c0-.6979-.558-1.3958-1.116-1.6749-1.536-.6979-3.21-1.2562-4.746-1.5354l.14-.5583h8.235c1.116 0 2.093.8375 2.233 1.9541l2.094 10.8869 5.024-12.841zm20.099 12.7014c0-5.0247-6.84-5.3039-6.84-7.3975 0-.6979.698-1.3958 2.094-1.5353 1.675-.1396 3.35.1395 4.746.8374l.837-4.0477c-1.396-.5583-3.071-.8374-4.606-.8374-4.746 0-8.235 2.5123-8.235 6.2809 0 2.6519 2.373 4.1873 4.327 5.1643s2.512 1.5353 2.512 2.3728c0 1.2562-1.535 1.8145-2.931 1.8145-1.675 0-3.489-.4188-5.025-1.1166l-.837 4.1872c1.675.6979 3.629.9771 5.443.9771 5.165-.2792 8.515-2.7915 8.515-6.6997zm12.701 6.1414h4.466l-3.908-18.8428h-4.187c-.977 0-1.675.5583-2.094 1.3958l-7.258 17.447h5.165l.977-2.7915h6.281zm-5.443-6.6997 2.512-7.1183 1.535 7.1183zm-20.379-12.1431-4.047 18.8428h-4.885l4.047-18.8428z" fill="#10357f"/><g fill="#0071ce"><path d="m73.6129 45.4502-3.5285-3.9358-3.6643 3.9358h-7.1929-15.4714v-18.3215h-7.1929l8.9572-20.49283h8.6857l3.1214 7.05713v-7.05713h10.8572l1.9 5.29283 1.9-5.29283h8.2785v-3.12143c0-1.9-1.4928-3.392858-3.3928-3.392858h-72.74287c-1.9 0-3.392855 1.492858-3.392855 3.392858v44.10716c0 1.9 1.492855 3.3928 3.392855 3.3928h72.74287c1.9 0 3.3928-1.4928 3.3928-3.3928v-2.1714z"/><path d="m74.5614 43.2785h5.7l-7.4643-8.0072 7.4643-7.8714h-5.5643l-4.75 5.1571-4.6143-5.1571h-5.7l7.6 8.0071-7.6 7.8715h5.5643l4.75-5.1572z"/><path d="m50.5382 39.6142v-2.4429h8.9571v-3.6643h-8.9571v-2.4428h9.0928v-3.6643h-13.4357v15.8786h13.4357v-3.6643z"/><path d="m76.0542 25.0929h4.0715v-16.01429l-6.5143.13572-3.5286 9.90717-3.6643-9.90717h-6.7857v15.87857h4.3429v-11.1286l4.0714 11.1286h3.8l4.2071-11.1286z"/><path d="m52.7113 9.21436h-5.5643l-7.0572 15.87854h4.75l1.3572-3.1214h7.3286l1.3571 3.1214h4.8857zm-5.0215 9.09284 2.1715-5.1571 2.1714 5.1571z"/><path d="m76.3281 34.8643 3.9357 4.3429v-8.6857z"/></g></svg>